<?xml version="1.0"?><svg version="1.2" baseProfile="tiny-ps" viewBox="0 0 300 300" xmlns="http://www.w3.org/2000/svg" xmlns:xlink="http://www.w3.org/1999/xlink"><title>popbox-studio</title><g><g fill="#fffdfe" transform="matrix(.1 0 0 -.1 0 300)"><path d="M369 2976c-102-27-171-87-218-186l-26-55-3-172-4-173h16c10 0 28-11 41-25l25-24v-58l-21-27-20-26h-39v-90l25-6 25-6 15-21c18-26 19-57 4-91l-12-25-28-10-29-10v-77l32-15 33-14 9-32 9-32-13-30-12-30-29-10-29-10v-77l34-17 35-16 6-35 7-34-7-22-7-21-34-16-34-17v-77l29-10 28-10 12-25c6-14 11-36 11-50v-25l-25-24c-13-14-31-25-40-25h-15v-81l29-10 29-10 12-30 13-30-9-32-9-32-33-14-32-15v-86h39l20-26 21-27v-58l-25-24c-13-14-31-25-40-25h-15v-90h39l20-26 21-27v-58l-25-24c-13-14-32-25-41-25h-17l5-103 5-103 25-56 26-56 42-42 42-42 57-27 56-26h2230l57 28 57 28 45 50 45 50 20 55 21 55v189h-10c-6 0-22 11-35 25l-25 24v71l20 20c11 11 27 20 35 20h15v90h-10c-6 0-22 11-35 25l-25 24v71l20 20c11 11 27 20 35 20h15v90h-10c-6 0-22 11-35 25l-25 24v67l16 22 15 22h39v90h-10c-6 0-22 11-35 25l-25 24v67l16 22 15 22h39v90l-24 10c-31 11-46 39-46 83v34l17 15c10 8 26 18 36 21l17 6v91h-39l-15 22-16 22v67l25 24c13 14 29 25 35 25h10v88l-25 6-24 6-11 21-11 20 3 37 3 37 32 20 32 20 1 43v42h-15c-8 0-24 10-35 22l-21 23 3 40 3 40 33 20 32 20-2 180-3 180-27 50-26 51-47 43-46 43-47 21-47 22-1095 2-1095 2-46-13z"/></g><g fill="#f9d0dc" transform="matrix(.1 0 0 -.1 0 300)"><path d="M369 2976c-102-27-171-87-218-186l-26-55-3-172-4-173h16c10 0 28-11 41-25l25-24v-58l-21-27-20-26h-39v-90l25-6 25-6 15-21c18-26 19-57 4-91l-12-25-28-10-29-10v-77l32-15 33-14 9-32 9-32-13-30-12-30-29-10-29-10v-77l34-17 35-16 6-35 7-34-7-22-7-21-34-16-34-17v-77l29-10 28-10 12-25c6-14 11-36 11-50v-25l-25-24c-13-14-31-25-40-25h-15v-81l29-10 29-10 12-30 13-30-9-32-9-32-33-14-32-15v-86h39l20-26 21-27v-58l-25-24c-13-14-31-25-40-25h-15v-90h39l20-26 21-27v-58l-25-24c-13-14-32-25-41-25h-17l5-103 5-103 25-56 26-56 42-42 42-42 57-27 56-26h2230l57 28 57 28 45 50 45 50 20 55 21 55v189h-10c-6 0-22 11-35 25l-25 24v71l20 20c11 11 27 20 35 20h15v90h-10c-6 0-22 11-35 25l-25 24v71l20 20c11 11 27 20 35 20h15v90h-10c-6 0-22 11-35 25l-25 24v67l16 22 15 22h39v90h-10c-6 0-22 11-35 25l-25 24v67l16 22 15 22h39v90l-24 10c-31 11-46 39-46 83v34l17 15c10 8 26 18 36 21l17 6v91h-39l-15 22-16 22v67l25 24c13 14 29 25 35 25h10v88l-25 6-24 6-11 21-11 20 3 37 3 37 32 20 32 20 1 43v42h-15c-8 0-24 10-35 22l-21 23 3 40 3 40 33 20 32 20-2 180-3 180-27 50-26 51-47 43-46 43-47 21-47 22-1095 2-1095 2-46-13zm2194-126 7-61 14-27c27-52 103-102 156-102h20V320h-25c-58 0-133-47-161-102l-14-27V90H420v86l-23 44-22 45-33 22-33 22-45 7-44 6v2338h23c32 1 98 33 124 61 12 13 29 41 38 61l15 37v91h2137l6-60zm-2103-16c0-15-6-45-12-68l-13-41-37-37-37-37-50-18-51-18V362l34-6c18-4 53-19 77-36l44-29 18-31 19-31 7-47 6-47 1022-3 1021-2 7 42 7 43 24 42 25 43 37 25 37 25 38 6 37 7v2256l-39 11c-63 17-109 58-141 125l-20 40v65H460v-26zm2015-46c18-81 87-163 159-189l36-13V405l-44-18-44-18-37-36-37-36-19-41c-10-23-19-49-19-58v-18H510v18c0 9-9 35-19 58l-19 41-37 36-37 36-44 17-44 17v2185l26 6c40 10 91 48 124 92l29 39 12 48 13 47h1954l7-32zm-1140-133c-88-20-187-58-252-96l-57-34-87-85-86-85-46-80c-26-44-47-85-47-91v-11l148 43c81 24 154 44 163 44h16l124-110 124-110 28 6 27 6v-16c0-9-3-16-7-16-5 0-18-3-29-6l-21-6-124 111-124 111h-21c-28 0-535-147-547-159l-9-9 7-11c3-6 62-56 131-112 68-55 124-103 123-107 0-4-45-43-100-87l-99-79 3-11 3-10 102-35 102-35v-421l43-16c23-9 159-67 302-128s283-121 312-132l52-20 348 147c191 82 350 149 352 151 1 1 4 96 5 210l1 207 80 28c44 16 90 33 103 39l22 10-1 12v13l-85 65c-47 36-91 72-99 80l-14 16 129 104 130 105v18c0 9-1 17-2 17-2 0-126 36-276 79l-274 79-116-101c-64-55-119-102-122-104-2-2 2-8 10-13l14-9-7-7-7-7-47 9-48 9-3 17-3 18 29-6 29-6 126 111 127 111h17c10 0 84-20 166-44l147-44v8c0 19-83 150-133 211l-55 66-67 50c-83 62-169 106-265 133l-75 22-115 3-115 4-60-14zm280-75c22-9 55-30 74-46l34-28 18-41 19-40v-119l-20-40-20-41-80-73-81-74-11-44-12-44h-106v92l16 33 15 33 61 53c33 29 69 66 79 83l19 31v95l-33 36-32 35-42 6c-54 7-84-1-122-32l-30-26-16-49-17-50-18-10c-27-15-56-12-74 6l-16 15v80l16 37c52 126 234 185 379 122zm-80-735 25-24v-42l-25-24-24-25h-19c-11 0-31 9-46 21l-26 20v59l20 20 20 20h51l24-25zm-669 796c-4-5-3-17 0-26l7-16 21 3 21 3 3 23 3 22h-25c-14 0-27-4-30-9zm1198-6-7-16 11-11 10-10 18 4 19 3v40l-23 3-22 3-6-16zm266-126v-31l-29-29c-16-16-37-29-45-29-9 0-16-4-16-10 0-5 7-10 16-10 8 0 29-13 45-29l29-29v-52h20v52l29 29c16 16 37 29 45 29 25 0 19 17-9 24l-26 7-19 32c-11 17-20 42-20 55v22h-20v-31zm-1704-10-6-33-22-23-21-23h-37v-10c0-5 7-10 16-10 8 0 29-13 45-29l29-29v-53l10 6c6 3 10 16 10 29v22l28 27c15 15 33 27 40 27 22 0 12 15-21 30l-32 15-16 44-16 44-7-34zM521 1406l-11-13 6-17 6-16h46l5 13c6 17-11 47-27 47-8 0-19-6-25-14zm1889-1-12-15 6-16 6-15 22 3 23 3 3 19 4 19-14 8c-18 12-24 11-38-6zM650 1108v-18l-23-15-24-15 31-33 31-33 10 20c6 11 22 26 35 33l25 13h-34l-25 33-26 32v-17zm1672 3-14-8 4-19 3-19 23-3 22-3 6 15 6 16-12 15c-14 17-20 18-38 6zM874 859l-32-9-30-35-31-35-7-35-6-36 6-37c6-41 29-76 70-106l27-21h148l27 21c15 11 36 31 46 45l18 24 6 50 5 50-23 45-23 45-45 23-44 22-41-1c-22 0-54-5-71-10zm129-91 18-21-3-50-3-50-27-20-26-20-36 7-36 7-15 29c-27 52-13 118 29 139l21 10 30-4 30-5 18-22zm962 88-40-15-27-33-28-32-6-34c-9-45 2-101 24-132l18-25 44-22 44-23h82l44 23 44 22 19 27 20 27 4 48 5 48-24 44-24 44-38 20-37 20-42 3-42 4-40-14zm130-81 25-24v-88l-21-27-20-26h-80l-24 25-25 24v92l25 24 24 25h72l24-25zM462 703l3-158 18-3c10-2 29-1 43 2l24 6v90h49c27 0 61 4 75 10l25 9 17 26 16 25v39l-1 39-13 21c-7 12-27 28-44 36l-32 15H459l3-157zm162 81 16-6v-68h-90v80h29c16 0 36-3 45-6zm548-81 3-158h70l5 45 5 45 67 5 68 5 26 27 27 27v92l-32 32-31 32-105 3-106 4 3-159zm166 78 14-8-4-29-3-29-47-3-48-3v81h38c20 0 43-4 50-9zm182-75V550h238l31 26 31 26v56l-24 29-24 29 14 19c8 10 14 31 14 45v27l-26 24-26 24-114 3-114 4V706zm188 65 4-24-14-8c-7-5-30-9-50-9h-38v71l48-3 47-3 3-24zm15-112 10-16-6-17-6-16h-111v71l51-3 52-3 10-16zm507 191c0-5 20-37 45-71s45-66 45-71-20-37-43-71c-24-34-47-68-51-74l-7-13h90l32 47 32 46 21-24c12-14 28-35 36-48l15-22 43 3 43 3-50 72c-28 40-51 75-51 79 0 3 20 35 45 70 25 34 45 67 45 73v11h-77l-32-45c-18-25-33-45-35-45-1 0-17 20-35 45l-32 45h-79v-10zm-920-375-12-15 6-15 5-15h-39v40h-40v-40h-80v-30h80v-89l-16-9-17-9 7-12c9-15 39-14 54 1l12 12v106h65l13 27c16 36 15 40-7 52l-19 11-12-15zm477 0-15-14-68-3-69-3v-30l63-3 62-3v-12c0-7-9-26-19-43l-19-31-37-17-37-18 15-15 16-16 29 12c41 17 75 56 107 123l28 57-6 15-6 16h-15c-8 0-21-7-29-15zm33-15c0-5-4-10-10-10-5 0-10 5-10 10 0 6 5 10 10 10 6 0 10-4 10-10zM810 443c0-10-7-28-15-40l-15-22-23-4-22-3 25-11c31-13 46-31 52-58l4-20 14 30 15 30 23 10c29 13 28 17-8 37l-30 17v20c0 11-4 23-10 26l-10 6v-18zm1330-17-15-31-22-10c-29-12-29-21 0-29l24-6 12-26 12-27 19 31 20 32h20c27 0 25 13-2 25l-23 10-15 31-16 30-14-30zm-676-10-6-14 12-21 11-21h29v19c0 17-24 51-36 51-3 0-7-6-10-14zm64-44-23-47-32-15c-34-16-42-34-19-43l14-6 33 18c41 22 67 56 75 97l6 31-15 6-15 6-24-47zm-549 22-13-16 11-16c5-10 17-18 26-20l16-3 10 20 11 20-16 15c-19 20-28 20-45 0zm426 7c-8-13 16-61 30-61 20 0 24 11 13 41l-10 29h-13c-8 0-16-4-20-9zm547-3c-16-16-15-33 4-48l15-13 17 17 17 16-11 17c-14 22-27 26-42 11zm-792-47c-25-36-25-41-1-41h20l15 22c20 28 20 34 1 41l-14 6-21-28zm139-9c5-10 16-24 23-30l14-11 12 8 12 7-16 22-15 22h-40l10-18z"/></g><g fill="#feaec6" transform="matrix(.1 0 0 -.1 0 300)"><path d="M369 2976c-102-27-171-87-218-186l-26-55-3-172-4-173h16c10 0 28-11 41-25l25-24v-58l-21-27-20-26h-39v-90l25-6 25-6 15-21c18-26 19-57 4-91l-12-25-28-10-29-10v-77l32-15 33-14 9-32 9-32-13-30-12-30-29-10-29-10v-77l34-17 35-16 6-35 7-34-7-22-7-21-34-16-34-17v-77l29-10 28-10 12-25c6-14 11-36 11-50v-25l-25-24c-13-14-31-25-40-25h-15v-81l29-10 29-10 12-30 13-30-9-32-9-32-33-14-32-15v-86h39l20-26 21-27v-58l-25-24c-13-14-31-25-40-25h-15v-90h39l20-26 21-27v-58l-25-24c-13-14-32-25-41-25h-17l5-103 5-103 25-56 26-56 42-42 42-42 57-27 56-26h2230l57 28 57 28 45 50 45 50 20 55 21 55v189h-10c-6 0-22 11-35 25l-25 24v71l20 20c11 11 27 20 35 20h15v90h-10c-6 0-22 11-35 25l-25 24v71l20 20c11 11 27 20 35 20h15v90h-10c-6 0-22 11-35 25l-25 24v67l16 22 15 22h39v90h-10c-6 0-22 11-35 25l-25 24v67l16 22 15 22h39v90l-24 10c-31 11-46 39-46 83v34l17 15c10 8 26 18 36 21l17 6v91h-39l-15 22-16 22v67l25 24c13 14 29 25 35 25h10v88l-25 6-24 6-11 21-11 20 3 37 3 37 32 20 32 20 1 43v42h-15c-8 0-24 10-35 22l-21 23 3 40 3 40 33 20 32 20-2 180-3 180-27 50-26 51-47 43-46 43-47 21-47 22-1095 2-1095 2-46-13zm2201-119v-54l23-44 23-44 34-19c18-11 49-22 69-25l36-6V315l-40-5c-23-3-56-15-75-26l-34-20-20-33-19-33-6-56-6-57H415l-1 50-1 50-17 37-18 38-36 22-36 22-41 6-40 5v2350l36 6c20 3 51 14 70 25l34 20 23 41 22 41 2 48c1 27 3 52 5 57l4 7h2149v-53zm-2104-38c-9-57-38-110-80-147l-36-31-40-12-40-12V360h20c28 0 90-33 117-62s62-105 63-135v-23h2040v18c0 9 5 35 11 57l11 40 49 47 49 48 40 6 40 7v2255l-27 7c-45 11-93 45-123 87l-29 39-11 55-11 54H473l-7-41zm2014-24v-26l25-48 24-49 38-31c21-17 52-36 70-42l33-11V402l-57-28-58-29-33-43-32-44-11-44-11-44H512l-11 44-11 44-33 44-33 43-57 29-57 29v2185l37 13 37 12 47 47 48 48 16 56 16 56h1969v-25zm-1105-136c-133-20-275-83-384-172l-65-52-52-69c-52-68-121-186-109-186 3 0 76 21 162 46l156 45 46-44c25-24 83-76 129-115l82-70 21 5 21 6 8-14 9-13-12-8c-7-4-22-8-35-8h-23l-126 110c-69 61-130 110-137 110-6 0-113-29-236-64-124-35-244-69-267-76l-43-11v-35l117-95c64-52 123-99 130-104l14-11-100-79-100-80v-15l-1-15 100-34 100-34 2-210 3-210 80-34c44-18 202-85 350-149l270-115 350 149 350 148 3 210 2 209 102 35c56 19 103 40 105 45l3 11-99 79c-55 44-100 83-100 86-1 4 58 55 129 113 72 59 130 111 130 116s-8 13-17 18c-33 17-524 154-536 149-7-3-63-49-126-103l-114-98 11-4c7-2 12-11 12-19v-15l-17 6c-9 4-36 10-60 13-45 6-48 9-34 32l9 14 23-6 22-6 32 27c18 15 78 67 133 115l101 88 156-46c86-26 159-45 161-43 2 3-20 42-48 89l-51 84-81 81-81 81-70 41-70 41-75 25c-126 41-243 53-365 35zm249-78c53-26 99-69 123-115l17-31v-130l-21-40-21-40-86-81-86-82v-58l-12-12-12-12h-94l-7 31-7 31 12 43 12 44 78 73 77 74 13 38 12 37-6 34c-4 18-16 45-27 59l-20 26-39 11-38 12-34-7-33-6-28-23-27-22-18-49-17-49-27-20-27-20-26 11-25 12-11 27-10 27 6 38 7 37 26 40c35 52 74 81 136 103l51 19 71-4 71-4 47-22zm-357-597c-3-3-12-4-19-1l-13 5 19 1c11 1 17-2 13-5zm216-31c-7-2-19-2-25 0l-13 5h50l-12-5zm57-103 20-20v-54l-22-23-21-23h-55l-21 18-22 17-1 33-1 32 18 20 18 20h67l20-20zm-345-584v-184l-7 5-8 4v359h15v-184zm52 168c-3-3-12-4-19-1l-13 5 19 1c11 1 17-2 13-5zm75-219c-2-14-6-25-8-25s-4 11-4 25v25h17l-5-25zm151-22c-7-2-19-2-25 0l-13 5h50l-12-5zM874 2635l-7-16 11-11 11-11 16 7 16 6-3 17-3 18-18 3-17 3-6-16zm1190 0-7-16 11-11 11-11 16 7 16 6-3 17-3 18-18 3-17 3-6-16zM631 2512c-1-13-7-35-15-51l-15-27-28-13-28-13 32-13 31-13 11-21c6-11 11-30 11-43v-23l20 42 19 43 26 12c27 12 34 28 12 28-21 0-54 41-65 80l-10 35-1-23zm1704-7c-4-11-12-31-18-44l-12-25-27-10c-36-13-35-19 2-33l30-11 17-39 17-38 4 20c2 10 11 30 19 42l15 23 24 6c25 7 33 24 11 24-20 0-57 43-66 76l-9 29-7-20zM522 1388l3-23h40l3 23 3 22h-52l3-22zm1882 11-6-11 16-16 16-16 16 16 16 16-6 11c-4 6-16 11-26 11s-22-5-26-11zM646 1093l-6-20-23-11-22-11h17l17-1 15-22 16-22 16 22 15 22 17 1 17 1-15 5c-8 3-25 16-36 30l-22 26-6-20zm1668 6-6-11 15-15 15-15 11 6c6 4 11 16 11 27v19h-19c-11 0-23-5-27-11zM875 856l-40-15-27-30-27-30-6-46-7-46 16-43c9-24 25-51 36-61 25-23 87-44 130-44l35-1 42 20 43 19 20 33 20 33v118l-19 31c-11 17-33 39-50 49l-31 18-47 5-48 4-40-14zm118-76 25-20 7-30 7-30-12-35-12-35-18-10c-10-6-33-10-50-10h-31l-24 25-25 24v41c0 66 27 98 86 99l21 1 26-20zm-533-75V550h80v90h111l22 11c12 6 30 21 39 33l18 21v81l-16 23-17 23-33 14-33 14H460V705zm180 70 12-15-6-25-6-25-24-6c-13-3-35-4-47-2l-24 3-3 43-3 42h89l12-15zm530-70V550h80v88l71 4 71 4 24 27 24 28v86l-20 26-21 26-37 11-37 10h-155V705zm180 66c14-27 13-37-6-55l-15-16h-79v90h89l11-19zm188 83-8-7V550h215l31 19 31 19 6 28 5 29-14 26c-7 15-20 29-29 33l-16 6 22 29 22 29-7 26-6 26-24 15-24 16-98 6-99 5-7-8zm177-74 7-21-12-14-12-15h-98v70h109l6-20zm13-131 3-26-15-12-14-12-49 3-48 3-3 38-3 38 63-3 63-3 3-26zm213 189c-19-12-43-35-55-51l-20-28V654l19-33 20-34 35-18 35-19h127l30 18 29 17 22 34 21 35v93l-20 33c-10 18-32 42-47 54l-28 20-67 4-67 4-34-24zm157-60c11-13 24-35 27-50l7-27-12-36-12-35-30-16-31-16-39 12-40 11-15 36-15 36 7 34 6 34 20 20 19 19h87l21-22zm380 74-38-3-31-45c-18-24-33-44-35-44-1 0-15 20-31 45l-28 45h-86l44-62c24-35 47-68 50-74l6-11-49-69c-28-37-50-72-50-76v-8h75l34 50c19 28 35 50 37 50 1 0 18-22 38-50l36-50h70v9c0 4-22 39-50 77l-50 68 13 18c6 9 30 42 51 73s37 57 35 58-21 1-41-1zm-690-382-13-20h-147l4-12 4-12 61 3 61 2 6-10 7-11-12-22c-16-33-60-78-75-78-7 0-16-5-20-11l-6-11 9-9 9-9 44 23 45 22 28 55c15 30 32 59 37 64 6 6 10 18 10 27v17l-16 6c-22 8-22 8-36-14zm40-12c-2-6-10-14-16-16l-12-4v32h32l-4-12zm-524 7c-8-19 3-35 26-35h18l4 13c3 6 3 18 1 25l-5 12h-39l-5-15zm36-10c0-8-4-15-10-15-5 0-10 7-10 15s5 15 10 15c6 0 10-7 10-15zm-107-4-5-20-37-3-36-3 2-10 3-10 35-3 35-3v-97l-12-5-13-5 11-12 12-12 21 11 21 12v109h71l-6 9c-3 5-18 12-34 16l-29 6-5 20-5 19h-24l-5-19zm-423-18v-22l-27-21-27-21 14-9c8-6 18-10 22-10s11-12 14-26l6-25 19 30 19 31h15c19 0 19 16 0 24-8 3-24 20-35 38l-20 33v-22zm1336-7-7-27-24-11c-28-13-33-28-10-28h15l20-32 20-33v34l30 23 31 22-21 8-21 8-13 31-13 31-7-26zm-686-11c0-2 5-16 12-30 18-40 43-29 27 13l-8 22h-16c-8 0-15-2-15-5zm80-24c0-25-35-68-71-87l-30-15 6-9c4-6 15-10 25-10h19l35 31c19 16 38 39 41 50 3 10 8 28 11 39l5 20h-41v-19zm-566-6-7-16 11-11 10-10 18 4 19 3v40l-23 3-22 3-6-16zm436 2c0-7 6-21 13-32l14-18 7 12 7 11-6 20-6 20h-29v-13zm534-2-7-16 11-11 10-10 18 4 19 3v40l-23 3-22 3-6-16zm-786-40c-23-30-22-35 2-35h19l16 30 16 30h-18l-18-1-17-24zm142 9c0-3 5-14 10-25l11-19h14c18 0 18 5 5 31l-11 19h-14c-8 0-15-3-15-6z"/></g><g fill="#9f9096" transform="matrix(.1 0 0 -.1 0 300)"><path d="m783 2153-263-76v-33l117-95c64-52 122-99 130-104l14-10-101-83-100-82v-25l100-34 100-34v-418l43-18c23-9 182-77 352-150l310-132 350 149 350 149 3 209 2 209 102 35c56 19 103 40 105 45l3 11-99 79c-55 44-100 83-100 86-1 4 58 55 129 113 72 59 130 111 130 116s-8 13-17 18c-33 17-524 154-536 149-7-3-63-49-126-103l-114-98 11-4c7-2 12-11 12-19v-15l-17 6c-9 4-36 10-60 13l-43 6v-42l-19-11-20-10h-97l-16 13c-9 6-18 21-20 32l-3 20-33-3-32-3-126 110-126 111-17-1c-9 0-134-34-278-76zm386-80 100-88-17-4c-9-2-104-27-211-57l-194-54-16 12c-86 68-192 163-185 165 69 23 385 111 400 112l22 1 101-87zm963 31c109-31 198-60 197-63 0-6-171-149-193-163l-11-6-207 56-206 57 102 87c55 49 105 88 111 88 5 0 99-25 207-56zm-573-239 26-25v-79l-24-25-24-25-29-6-29-7-30 12-30 13-14 28c-8 15-15 40-15 55v26l35 35 36 36 36-6 37-6 25-26zm-415-135c148-44 270-81 272-83s-39-38-90-80l-94-76-277 92-277 93 87 71 88 71 11-4c6-2 132-40 280-84zm1121-24c17-13 28-26 25-29-3-2-118-44-256-94l-250-89-113 75-114 76 34 10c19 5 147 43 284 85l250 76 55-43c30-23 69-54 85-67zm-634-178c75-48 141-88 147-88h12v-356l-42-16c-24-9-91-37-150-62l-108-45v37l133 54 132 55 3 150 3 151-151 97c-82 53-150 100-150 104s3 11 6 14l7 6 11-6c6-4 72-46 147-95zm-179-86c104-34 132-52 154-94l17-32-1-52v-52l-17-31-16-32-32-19-32-20h-35c-19 0-68 10-107 21l-73 22v89l13-5c7-3 41-13 75-22l61-17 25 6 24 6 11 30 10 31-8 22c-14 36-41 53-131 82-47 15-91 30-97 33l-13 4v-362l-47 18-48 18-3 181-2 182 32-5 33-5 30 21 30 21 30-6c17-3 69-18 117-33zm605-118 23-11-26-11-25-12-13-30-12-31-12 26-12 25-29 18-29 18 28 12 28 13 12 29 12 30 17-32 16-33 22-11zM875 856l-40-15-27-30-27-30-6-46-7-46 17-44 17-45 25-20c14-11 44-25 66-31l41-11 39 6c22 4 52 13 68 22l30 15 19 32 20 32v117l-16 27c-9 15-31 37-49 49l-32 23-49 4-49 5-40-14zm118-76 25-20 7-30 7-30-12-35-12-35-18-10c-10-6-33-10-50-10h-31l-24 25-25 24v41c0 66 27 98 86 99l21 1 26-20zm-533-75V550h80v90h111l22 11c12 6 30 21 39 33l18 21v81l-16 23-17 23-33 14-33 14H460V705zm180 70 12-15-6-25-6-25-24-6c-13-3-35-4-47-2l-24 3-3 43-3 42h89l12-15zm530-70V550h80v88l71 4 71 4 24 27 24 28v86l-20 26-21 26-37 11-37 10h-155V705zm180 66c14-27 13-37-6-55l-15-16h-79v90h89l11-19z"/></g><g fill="#544c4f" transform="matrix(.1 0 0 -.1 0 300)"><path d="m790 2152-265-77-2-15-2-15 125-100c69-55 128-103 130-107 2-3-41-44-96-89-55-46-100-87-100-91 0-5 10-12 23-17 12-4 57-20 100-35l77-28v-414l347-149c191-82 352-148 359-148 6 0 167 66 358 147l346 148v416l93 31c50 17 99 36 107 41l15 9-10 9c-6 4-54 44-108 87l-99 79 14 10c8 6 69 56 137 110l122 99-4 11-3 11-272 78-273 79-112-98-112-97 3-25 3-24-23 5c-13 3-40 9-60 12l-38 7v-19c0-10-5-24-12-31l-12-12h-57c-32 0-64 3-73 6l-16 6v50l-35-4-36-4-67 60c-124 112-190 166-198 165-5 0-128-35-274-77zm377-74c58-51 101-94 97-95-41-13-407-113-415-113-14 0-221 174-211 178 9 3 415 120 420 121 2 1 51-40 109-91zm1171-32c1-2-45-42-103-91l-106-87-192 51c-106 29-200 55-210 59l-18 7 105 91 105 92 208-60c114-33 209-61 211-62zm-799-160 27-15 12-26c7-14 12-35 12-45s-5-31-12-45l-12-26-27-15c-16-8-42-14-59-14h-32l-29 29-29 29v84l29 29 29 29h32c17 0 43-6 59-14zm-410-148c152-44 280-84 284-88l8-7-83-68c-46-38-88-72-95-78l-12-9-276 92c-151 50-275 95-274 98 0 7 160 140 168 141 2 1 128-36 280-81zm1091 10c43-35 79-65 79-68 1-3-116-47-259-98l-259-92-111 76c-61 42-109 78-107 80 10 10 553 172 565 168 6-2 48-32 92-66zm-593-213c80-52 152-95 160-95h13l-2-177-3-177-145-62c-80-34-151-63-157-63l-13-1v37l133 55 132 54 3 152 3 152-148 96c-82 53-150 98-153 101-4 3 19 22 28 23 1 0 68-43 149-95zm-174-90 88-27 34-30 35-30 11-38 12-38-7-46-7-47-30-34-31-35-36-10-36-10-41 11c-22 5-61 17-87 25l-48 16v90l18-5c9-3 47-13 84-23l67-18 20 18 21 19v65l-17 21-18 21-102 34-103 35v-180c0-98-1-179-3-179s-24 7-50 16l-47 16v370l30-7 29-6 36 24 37 25 26-8c15-4 67-20 115-35zm604-116 32-16-35-16-34-17-7-31-6-32-19 37-19 37-30 11-30 10 33 17 33 16 14 33 15 33 10-33 11-33 32-16zM853 844l-33-16-21-35-22-35V653l17-29c10-16 30-38 44-49l27-20 66-3 67-4 34 16 35 17 21 38 22 39v97l-20 33-20 32-32 20-33 20H885l-32-16zm132-50c8-4 22-19 30-35l15-28v-68l-21-27-20-26h-89l-20 20-20 20-1 28c-1 15 0 38 0 52l2 25 25 23 25 22h29c15 0 36-3 45-6zm-525-94V550h80v88l60 4 60 4 28 21 27 20 9 31 9 31-7 26c-4 15-18 38-31 51l-24 24H460V700zm178 78c7-7 12-21 12-33s-5-26-12-33l-12-12h-86v90h86l12-12zm532-78V550h80v88l66 4 67 4 28 32 29 32v31c0 16-6 42-14 58l-15 27-26 12-26 12h-189V700zm178 78c7-7 12-21 12-33s-5-26-12-33l-12-12h-86v90h86l12-12z"/></g><g fill="#1e1c1e" transform="matrix(.1 0 0 -.1 0 300)"><path d="m1794 2128-116-101 12-7 13-8-8-12-7-12-37 7c-20 3-43 8-51 11l-16 4-11-30-11-30h-153l-11 31-10 30-29-6-29-7-122 111-123 110h-25c-14 0-140-33-280-73l-255-73v-12c0-7 56-58 125-114 69-57 125-108 125-114s-43-46-95-88c-52-43-96-81-98-85-1-4 39-22 90-40s99-37 106-43l12-9v-409l18-6c9-3 163-69 341-145 179-76 330-138 335-138 6 0 167 66 358 147l348 147 2 210 3 209 55 18c100 34 140 51 140 59 0 5-45 44-99 87-55 43-99 82-98 86 1 5 59 54 127 111l125 102v29l-200 57c-109 32-230 67-267 77l-68 20-116-101zm-664-14c115-100 142-125 137-130-3-4-372-108-408-116l-16-3-107 89c-59 48-105 90-103 93 5 4 407 121 422 122 6 1 39-24 75-55zm998-3c112-32 206-61 209-65 3-3-5-14-18-25-13-10-60-49-103-85-44-36-84-66-90-66-18-1-400 103-409 111l-9 7 104 91c56 50 105 90 108 90s96-26 208-58zm-567-240 29-29v-84l-29-29-29-29h-82l-31 28-32 28v88l32 28 31 28h82l29-29zm-442-127c327-96 306-89 304-98-4-13-182-156-195-156-7 0-136 41-286 91l-274 91 14 13c31 31 164 134 172 135 5 0 125-34 265-76zm1097 9c46-38 84-71 84-74 0-4-6-9-12-11-7-3-124-44-259-93l-246-87-117 78c-64 42-115 79-113 81 6 5 550 171 566 172 7 1 51-29 97-66zm-579-221c78-51 146-92 152-92h11v-356l-122-51c-68-28-140-59-161-68l-38-16 3 28 3 27 130 52 130 52 3 150 3 150-151 97c-82 53-150 100-150 104 0 14 14 22 30 18 9-2 79-45 157-95zm-206-78c129-41 160-59 183-108l16-34v-93l-19-38-20-38-26-17c-15-10-41-20-59-23l-32-5-74 22c-41 13-81 27-87 33l-13 9v38c0 20 2 39 5 42s41-5 83-18c93-29 87-29 112-4l20 20v47l-20 26-20 25-93 31c-50 17-95 31-100 31h-7v-350h-12c-7 0-32 9-54 19l-41 19-2 177c-1 97 1 180 4 185l6 9 26-10 26-10 36 25c20 14 39 25 42 25 3 1 57-15 120-35zm628-121 33-23-24-9c-30-11-44-29-53-63l-7-28-8 5c-4 2-10 18-14 35l-6 31-37 16-38 15 38 19 37 19 6 28c4 15 9 31 12 36l6 10 11-35 12-34 32-22zM860 842l-35-17-23-35-24-35 4-58 4-57 20-28c11-15 36-35 55-44l34-18h100l34 18c19 9 43 28 53 42l18 25 6 46 6 46-20 46-20 46-41 20-40 21h-96l-35-18zm149-68 21-27v-86l-24-28-24-28h-80l-21 19-21 19-6 33-6 34 6 25c4 14 15 34 26 45l20 20h89l20-26zm-547-71 3-148 38-3 37-3v89l66 7 67 7 23 23 24 24 1 23c1 13 0 34 0 48l-2 25-30 28-29 27H459l3-147zm172 84 18-13-4-34-3-35-52-3-53-3v101h76l18-13zm546-87V549l33 3 32 3 3 43 3 42h32c18 0 50 5 71 10l39 9 20 20 20 20v92l-27 27-26 27-100 3-100 4V700zm161 90 19-11v-67l-16-6c-9-3-33-6-55-6h-39v100h36c19 0 44-5 55-10z"/></g></g></svg>